<svg width="151" height="110" viewBox="0 0 151 110" fill="none" xmlns="http://www.w3.org/2000/svg">
<g id="flask" clip-path="url(#clip0_14_2)">
<path id="Vector" d="M45.2792 67.9074C39.5664 65.3649 33.4709 62.9285 29.3066 59.4953C20.5404 53.4411 13.7928 46.4333 9.17968 39.0677C6.39062 34.2778 5.43555 29.1428 1.8379 24.5388C-1.9203 21.1938 2.48536 17.5399 8.96113 16.4772C11.8422 16.1629 16.9111 14.6242 10.7922 15.7254C5.30547 18.0013 4.77695 13.6569 10.4019 13.3818C14.241 13.0937 15.6543 11.3166 14.34 9.71691C10.2174 8.19541 24.3332 6.52606 17.2299 4.2564C9.83534 -0.258398 27.5775 -1.12755 23.1994 4.00082C22.1529 7.94381 35.6013 3.27653 32.4783 7.83078C35.6511 10.0182 44.3564 8.32966 44.1378 11.3965C48.7585 11.5762 50.3447 13.7743 54.6777 13.9433C59.1759 15.0922 67.3222 15.9959 68.8503 18.8615C64.3913 20.858 54.0689 14.7369 53.5702 20.2644C54.9191 28.4314 54.5751 36.8441 59.855 44.6211C62.3523 49.3294 68.4097 53.0357 73.877 56.7036C79.1112 60.2949 86.1993 62.8248 93.4257 64.9532C99.7626 66.6438 106.595 67.7642 113.503 68.4689C116.304 67.257 121.249 62.7508 125.617 64.6496C125.828 66.7873 116.947 69.115 125.2 68.8786C130.051 68.0506 133.411 70.9981 137.403 68.3386C141.082 70.8036 152.69 66.7651 150.074 71.8026C146.534 73.0948 141.373 72.3141 137.829 74.0919C131.986 72.4401 127.334 75.568 120.863 75.1735C113.679 75.9014 106.368 76.1945 99.0852 76.2004C87.1344 75.6671 74.9317 75.442 63.5634 73.0878C57.1573 72.035 50.9083 69.9712 45.2792 67.9074ZM55.3714 70.3829C61.6245 71.911 67.7399 73.5237 74.5942 74.0113C85.468 74.8655 96.6975 76.1832 107.609 74.9826C102.671 73.7213 97.5635 75.4725 92.644 74.0809C86.7436 74.7983 80.4108 73.8966 74.4097 73.4521C67.5894 71.7337 60.2265 70.5523 53.8392 68.3191C45.854 66.67 57.9659 70.4349 60.1228 70.7409C65.1114 72.342 54.6355 69.9188 53.156 69.2535C48.9771 67.9269 48.4451 68.2044 52.7435 69.5505C53.6089 69.8369 54.4638 70.1383 55.3714 70.3829ZM43.471 65.6251C49.5326 66.8954 43.4441 63.2146 40.6703 63.4274C39.4398 62.2198 35.9693 61.4567 38.4173 60.8087C34.0152 61.6739 33.8043 57.5204 31.7359 58.1147C27.0765 57.2824 29.923 54.3342 24.3713 52.5226C23.865 50.6146 18.8576 48.9608 17.2638 46.0842C16.559 44.6105 11.6049 40.3817 14.6471 44.3174C17.2369 48.1063 21.7926 51.3538 25.5859 54.5944C28.5285 57.6805 32.0078 60.9085 37.3679 62.8334C39.1767 63.8152 40.9199 65.3172 43.471 65.6251ZM26.0154 54.7807C27.1228 55.9011 26.2252 54.2626 26.0154 54.7807ZM50.732 67.1466C52.0726 66.8065 48.8007 66.7177 50.732 67.1466ZM54.0191 67.8255C53.6786 66.8887 52.5173 68.3499 54.0191 67.8255ZM58.1382 68.7968C60.0958 67.7403 55.1148 68.1305 58.1382 68.7968ZM65.1958 71.022C66.387 70.0272 61.3831 70.6474 65.1958 71.022ZM51.6443 65.6775C54.6853 64.5631 47.7091 65.6619 51.6443 65.6775ZM54.7322 66.5486C54.6437 65.9609 53.6323 66.8128 54.7322 66.5486ZM70.1686 71.9999C72.6513 72.8866 84.6636 73.942 77.1425 72.3638C75.8809 72.5137 63.1954 70.3329 70.1686 71.9999ZM45.663 61.2012C45.4216 60.6121 41.8076 60.5488 45.663 61.2012ZM52.8466 63.5729C54.7198 62.8337 48.9654 63.0028 52.8466 63.5729ZM58.8923 65.6689C61.5782 65.0967 54.5406 65.0944 58.8923 65.6689ZM42.7357 59.3999C45.6478 60.6632 54.4837 59.5623 47.1953 58.6458C43.8812 57.6463 36.4099 56.9618 41.5029 59.2484L42.7357 59.3999ZM62.9892 66.3925C64.2032 65.224 57.9003 65.7246 62.9892 66.3925ZM56.8351 63.6263C63.9542 64.7646 50.8468 61.0772 55.0773 63.206L56.0165 63.4466L56.8351 63.6263ZM69.1737 67.6604C75.9167 67.6969 63.0812 67.134 69.1737 67.6604ZM40.1423 57.1929C39.8775 56.4822 38.4794 57.2519 40.1423 57.1929ZM80.5796 71.2802C80.7595 69.9974 78.38 72.2362 80.5796 71.2802ZM51.6519 61.1793C51.2417 60.5031 49.5449 61.1511 51.6519 61.1793ZM40.7816 56.7467C44.6523 56.6148 35.4789 55.7821 40.7816 56.7467ZM27.9039 52.0383C27.4216 50.9875 23.6933 50.1509 27.9039 52.0383ZM61.7095 64.1752C61.3755 64.2747 61.0005 63.7174 61.7095 64.1752ZM82.7475 71.4801C82.6831 70.7797 81.602 71.744 82.7475 71.4801ZM59.8474 63.087C60.2271 62.1853 56.545 62.8135 59.8474 63.087ZM44.1724 57.4663C47.054 57.2926 39.5552 56.3652 44.1724 57.4663ZM70.6872 66.7873C75.1772 65.7813 66.3114 66.297 70.6872 66.7873ZM56.8972 61.4919C62.0693 61.8684 50.7402 59.4997 55.7593 61.2791L56.8972 61.4919ZM74.8737 67.745C79.7059 66.1131 78.1122 71.5709 83.0704 68.2067C87.9589 66.1867 78.8475 70.7038 84.871 68.5667C89.2309 66.9169 95.6674 69.349 99.7333 70.1403C102.656 70.06 105.499 71.5709 108.499 70.6514C114.269 69.7713 97.212 69.347 101.683 67.7881C96.4034 68.6579 92.5034 66.7522 89.9053 64.8382C83.9815 64.0642 77.1349 62.3521 74.177 59.3846C72.97 58.2728 75.9173 59.5431 73.1352 57.7222C69.5681 55.9273 67.7868 53.8873 65.3915 51.7048C62.5292 50.842 62.1923 48.2995 61.9046 51.6206C61.928 49.5244 58.4488 48.1132 57.598 48.6986C57.5827 46.6802 61.3228 47.6926 58.7054 46.1992C58.1429 44.1073 56.2878 41.9271 55.7318 39.5643C54.8669 38.4263 55.6087 35.9879 52.7745 38.5649C51.7433 41.2897 52.4335 35.2182 54.039 37.219C56.146 35.1771 53.2796 35.4174 53.1648 35.6995C54.537 33.9765 54.0349 31.5311 52.805 32.4633C53.5368 30.6358 53.9622 25.7395 51.7134 26.6086C53.0769 24.697 54.2997 17.8641 48.3753 20.4702C45.9771 20.4894 41.8205 20.9625 39.8587 21.515C46.0158 23.4357 39.2376 22.2085 36.7281 21.9029C36.4023 23.6803 33.9197 22.9129 30.816 22.9301C35.7742 23.2769 28.4019 25.7975 25.5636 24.8183C21.8699 25.8154 28.7476 28.3081 25.6363 29.0795C26.0201 30.2393 19.9808 28.6595 20.4525 31.3428C16.8695 30.4883 19.9621 34.5248 21.7551 33.1594C27.8511 34.0935 26.0465 36.22 26.1994 38.242C25.2068 39.4188 21.2951 35.4741 25.3293 35.6564C22.1453 32.7318 21.809 34.5983 19.1646 35.9574C18.5517 36.0552 25.9082 37.8906 21.2916 38.7969C25.3527 39.1526 25.4716 41.164 26.2996 42.4366C28.74 43.8752 28.2373 40.8471 31.1617 42.5775C29.3101 41.0361 21.3677 38.235 27.7632 39.1334C27.7281 37.5833 26.6054 36.3323 28.5672 36.3625C30.5101 34.3749 26.5328 41.2658 30.9086 38.7386C32.1185 38.4396 32.422 36.7487 34.5982 38.899C37.7587 40.6592 35.7402 41.9331 31.28 40.3207C32.0769 41.8532 37.2455 42.3991 36.2722 44.7948C37.3023 46.9017 38.7437 46.1253 39.9999 46.004C40.9843 48.0502 41.5451 46.546 41.5908 45.5704C46.1001 46.1174 45.0425 47.6256 46.4558 48.6791C49.563 49.472 42.008 43.3011 47.3417 46.8234C52.9538 49.6911 49.4488 50.8874 44.4109 50.4283C47.5984 50.2825 48.6243 52.867 52.614 52.7759C56.2497 53.7554 58.7136 57.5141 52.4452 55.9488C50.2726 54.839 42.5746 53.4713 48.8628 55.5805C54.6636 57.102 59.2767 58.0103 64.8741 59.9203C68.8784 61.5373 70.6093 63.3899 72.1269 63.7569C68.7595 64.6668 61.9819 63.0306 67.0157 62.5301C63.8739 62.2069 60.3419 61.3076 63.3489 63.5205C65.9083 64.7301 72.4104 64.6018 73.5794 64.7384C72.5909 65.9699 70.894 66.0677 73.6175 66.1628C70.5788 67.0797 74.5942 67.2229 74.8737 67.745ZM68.6593 57.8154C66.8089 56.7208 66.3302 54.6726 68.33 56.4537C69.3571 56.688 71.6142 59.8033 68.6593 57.8154ZM88.9016 65.0898C90.0548 65.0467 88.9356 65.5857 88.9016 65.0898ZM65.7407 55.132C66.4064 56.4083 65.6669 53.4779 65.7407 55.132ZM63.7286 53.6016C66.6595 54.3212 61.3995 51.0591 63.7286 53.6016ZM39.3449 44.0817C40.713 43.8752 40.0193 45.4034 39.3449 44.0817ZM58.7517 50.0315C59.7366 51.5275 59.5907 48.2475 58.7517 50.0315ZM45.0425 44.6383C47.0622 45.5621 44.0775 43.6545 45.0425 44.6383ZM56.8052 46.7714C54.6021 43.9796 58.3685 45.2452 57.2956 47.2288L56.8052 46.7714ZM36.5177 39.1174C35.5334 38.2009 33.9044 35.5129 34.4294 34.6918C34.9005 36.029 39.4527 40.4444 36.6589 36.5213C33.5752 33.233 40.3492 37.5873 41.0464 38.4091C41.3722 39.2242 39.1421 38.186 40.6515 40.0996C37.897 37.9211 39.0267 41.3029 36.5177 39.1174ZM30.2494 36.6728C31.6826 38.1336 30.506 34.542 30.2494 36.6728ZM33.0695 37.223C35.3488 39.4645 34.4142 35.6153 33.0695 37.223ZM26.2838 34.2539C23.95 32.9399 22.2601 31.7307 26.3945 33.4385C27.9847 33.4733 22.8549 30.6882 26.7783 32.5541C30.9004 32.9794 28.8121 36.3804 26.2838 34.2539ZM29.8468 34.2019C31.2039 33.4411 30.5675 34.9497 29.8468 34.2019ZM32.0423 34.5983C34.5367 35.5132 29.9845 32.4198 32.0423 34.5983ZM27.6824 32.2425C20.8972 28.8236 36.2072 34.0282 28.7898 32.875L27.6824 32.2425ZM47.1267 38.6322C44.1882 37.637 46.3451 31.6203 47.3493 35.7343C50.204 35.2116 47.1911 37.8608 49.3181 37.8346C48.9853 39.5053 48.0314 40.1066 47.1267 38.6322ZM54.3185 41.0381C54.9238 42.2785 54.6056 39.2242 54.3185 41.0381ZM53.0698 40.338C53.3915 39.5643 53.1003 41.2505 53.0698 40.338ZM29.0113 31.1194C24.6519 27.7161 41.6822 34.5612 31.805 31.9823C30.7738 31.8285 29.5293 31.7741 29.0113 31.1194ZM42.8622 35.2729C43.7822 35.7469 42.4492 32.4072 42.8622 35.2729ZM53.3757 39.0893C54.1878 37.4574 53.4378 40.1692 53.3757 39.0893ZM29.6822 29.821C32.2726 29.5068 40.4177 32.394 32.9388 30.6447C32.108 30.1243 30.3338 30.361 29.6822 29.821ZM51.9308 36.094C52.2079 33.1637 53.48 34.3448 51.9425 36.5146L51.9308 36.094ZM31.6093 28.8004C32.6664 27.9243 28.8039 24.8402 32.1642 27.6945C33.6173 28.3469 36.3671 28.7871 33.9384 29.0622C37.7582 30.9679 33.008 29.5784 31.6093 28.8004ZM50.831 35.1794C51.5599 31.8414 51.4755 37.1345 50.831 35.1794ZM29.4021 25.7179C30.2107 25.5223 29.831 26.3265 29.4021 25.7179ZM34.4177 27.4065C36.7966 29.1143 35.708 25.8737 34.4177 27.4065ZM48.5593 31.8563C48.8271 32.7125 48.5476 31.2689 48.5593 31.8563ZM47.739 30.8314C49.5671 32.2813 45.7773 28.0913 47.739 30.8314ZM46.5355 29.0341C47.6546 30.4561 46.2074 27.9024 46.5355 29.0341ZM48.4972 27.2308C47.149 25.8886 50.1993 21.3132 50.5404 24.1507C49.1183 26.3617 50.1302 27.5974 51.1181 24.632C52.9503 22.2997 50.7238 29.2383 48.4972 27.2308ZM50.5128 20.4268C51.0999 20.0191 50.6435 20.9184 50.5128 20.4268ZM47.146 57.954C47.2486 58.2036 46.3486 57.5595 47.146 57.954ZM54.0806 59.9375C57.9384 60.4991 57.9196 59.5991 54.4322 59.3303C52.5589 58.3444 46.6392 57.2973 51.9384 59.209C52.2876 59.7121 53.395 59.6989 54.0806 59.9375ZM40.3873 54.7913C42.5095 55.6893 48.3906 57.3318 43.4136 55.1344C45.0917 54.0305 40.2027 53.4435 41.824 52.7046C37.6972 51.2756 38.5662 51.4035 41.4601 51.4493C36.5019 50.1939 42.1761 50.2894 41.9083 49.646C39.9964 49.4332 32.4097 47.738 36.8734 49.7846C32.3371 48.4772 35.7923 50.2722 34.4212 50.0836C29.7806 49.3682 38.5521 52.0824 33.6853 51.4082C36.3449 52.6002 40.8466 54.4644 34.808 52.6695C34.0152 53.3175 39.131 54.2997 40.3873 54.7913ZM47.6394 57.1498C56.456 58.7561 43.3134 55.1838 47.6394 57.1498ZM84.7667 69.8734C84.8815 68.8829 83.5632 70.7187 84.7667 69.8734ZM88.5829 70.7817C90.6173 69.6679 88.6673 72.5591 91.9544 70.5089C91.9884 69.0411 91.8548 68.1746 88.1768 69.9579C87.1608 70.2768 86.7096 71.6266 88.5829 70.7817ZM28.0076 49.2605C27.3824 47.8709 23.6277 47.8769 28.0076 49.2605ZM32.0798 50.7707C30.5664 49.3513 26.681 49.4856 32.0798 50.7707ZM55.2642 58.6802C57.5294 59.8185 65.6593 59.5149 58.0122 58.8214C56.8814 57.8741 50.824 58.1018 55.2642 58.6802ZM87.1303 69.8157C90.6132 68.1616 83.7554 70.5526 87.1303 69.8157ZM94.376 72.631C94.3983 72.1 92.8743 72.8631 94.376 72.631ZM94.3878 71.8875C98.2456 69.5771 90.6518 72.0241 94.3878 71.8875ZM17.984 44.513C14.6969 41.8598 15.942 40.6675 12.7697 38.4999C12.1674 36.8418 7.32929 33.0831 10.2678 37.0649C12.9572 39.3952 13.7535 43.0018 17.984 44.513ZM93.1766 71.1526C100.277 68.5578 90.2651 70.0232 93.1766 71.1526ZM98.5948 72.3532C102.15 70.6275 96.3454 71.9932 98.5948 72.3532ZM26.8 46.3269C27.816 45.4706 24.172 46.2165 26.8 46.3269ZM97.4639 71.5338C100.905 70.2792 96.6712 70.4717 96.8399 71.6485L97.4639 71.5338ZM50.7659 54.8824C50.6476 54.0328 48.9466 54.954 50.7659 54.8824ZM53.6511 55.8212C52.7318 54.7721 52.2413 55.9859 53.6511 55.8212ZM102.985 72.3817C107.395 70.5821 100.315 72.0367 102.062 72.7242L102.985 72.3817ZM101.296 71.92C104.889 70.2182 97.5061 72.6741 101.296 71.92ZM109.923 75.1689C112.334 74.2563 106.993 74.8742 109.923 75.1689ZM29.0113 45.7093C32.241 46.1187 41.9265 50.2112 36.2142 45.9934C33.2875 45.5035 35.0423 41.4564 32.0576 42.1717C34.0615 44.0662 33.7041 44.87 29.497 43.6783C24.2142 42.2171 26.5281 44.4003 27.5634 45.0029C26.1525 45.1849 29.425 45.6944 29.0107 45.709L29.0113 45.7093ZM14.2867 39.131C14.865 37.7759 8.95703 31.6829 11.4976 36.0768C12.4129 36.9979 12.318 38.7425 14.2867 39.131ZM41.3136 48.5574C41.2333 48.4447 39.6472 47.7708 41.3136 48.5574ZM45.4093 49.0977C45.4093 47.6624 40.8812 48.5143 45.4093 49.0977ZM80.9276 61.7627C80.2497 60.7825 78.2499 61.7408 80.9276 61.7627ZM82.6327 62.4668C82.379 61.9185 81.6472 62.5732 82.6327 62.4668ZM96.7092 67.4847C98.0622 66.9192 95.0194 67.4115 96.7092 67.4847ZM21.6396 40.1931C25.5127 39.3452 17.4894 39.5882 21.6396 40.1931ZM77.8005 60.208C77.7554 58.7906 75.3296 60.5617 77.8005 60.208ZM20.1103 38.1747C22.597 37.7007 17.8076 37.8631 20.1103 38.1747ZM27.3291 40.1537C27.2863 39.6879 26.5668 40.3317 27.3291 40.1537ZM115.395 70.7058C118.595 70.3395 125.886 71.6273 127.062 70.2271C123.177 70.1727 113.625 68.6748 113.173 70.5821L114.024 70.6584L115.396 70.7058H115.395ZM29.6236 40.4812C29.6822 39.0439 27.6431 40.4271 29.6236 40.4812ZM10.6439 33.0311C9.78203 30.293 7.36386 32.6167 10.6439 33.0311ZM15.1685 33.6748C15.2265 32.7947 11.026 32.8836 15.1685 33.6748ZM17.7549 34.3945C17.1724 34.8254 17.0078 34.0517 17.7549 34.3945ZM34.0345 40.3012C34.8015 39.9021 32.2187 40.0065 34.0345 40.3012ZM16.0346 32.7732C15.5945 30.7054 10.7893 32.4633 16.0346 32.7732ZM6.75039 29.3656C6.61973 28.4119 5.8457 29.7252 6.75039 29.3656ZM8.1332 28.7765C7.90761 27.6445 6.94551 28.919 8.1332 28.7765ZM15.7592 31.3511C18.9853 30.6358 9.88456 29.8684 15.1 31.2169L15.7592 31.3511ZM117.845 67.0253C119.909 65.9546 115.224 66.6938 117.845 67.0253ZM130.178 70.6408C131.006 69.2582 128.093 70.8231 130.178 70.6408ZM16.5385 29.0904C16.8801 27.7512 13.9797 29.3569 16.5385 29.0904ZM5.68516 24.9767C5.10274 23.0866 5.18301 19.7678 10.7582 20.8885C3.3168 21.7252 15.9115 26.1227 14.3213 22.6504C17.4513 22.7376 20.4443 21.6039 18.8002 23.3223C24.9689 22.9388 29.2416 19.913 35.1988 20.338C39.8382 19.9892 44.9113 19.7267 49.9117 18.6689C54.0226 18.5019 57.98 15.9982 55.7282 14.5135C50.1226 14.245 44.2521 14.6414 38.057 15.3395C31.1916 16.1457 24.9543 17.6801 18.0262 18.3394C11.2709 18.8532 19.3826 19.7526 17.4472 19.9541C13.9258 20.6456 21.6508 21.1116 16.9914 21.8419C14.1144 21.5323 11.118 20.9731 12.3478 19.2563C5.88027 19.733 0.194345 21.2502 5.30606 24.9741L5.68574 24.9761L5.68516 24.9767ZM21.2758 20.4851C22.7892 17.3251 29.398 23.0866 23.7584 20.9058C23.0875 20.6194 21.976 20.3873 21.2758 20.4851ZM21.5699 18.9524C23.7584 18.0315 22.7312 19.4708 21.5699 18.9524ZM24.3478 18.9789C24.5482 17.5243 30.7129 19.7482 25.3638 19.5013L24.3478 18.9789ZM28.1488 18.114C29.5398 17.1945 28.5519 18.9288 28.1488 18.114ZM29.1226 17.7458C31.4365 16.1742 42.2142 16.7417 34.3252 17.5913C32.2099 16.6897 30.5898 18.1223 29.1226 17.7458ZM43.191 16.5186C50.1835 18.0424 42.8429 12.2242 43.191 16.5186ZM47.1841 16.5053C48.6431 14.3424 52.8501 15.6365 47.862 16.0698C47.9687 16.3018 47.7126 17.1885 47.1841 16.5053ZM14.9652 27.9806C19.3246 26.4697 10.3363 26.6696 14.9652 27.9806ZM18.1908 28.4858C19.7201 27.5669 14.865 28.1129 18.1908 28.4858ZM8.68925 24.6731C11.1795 23.5891 5.73906 24.2614 8.68925 24.6731ZM137.457 70.2463C137.53 68.989 135.553 70.8118 137.457 70.2463ZM124.372 65.1935C124.744 63.7483 122.691 65.3195 124.372 65.1935ZM141.055 70.7343C144.538 70.7409 151.61 70.1204 144.031 70.1227C142.84 70.2271 137.101 70.2056 141.055 70.7343ZM21.0267 27.5987C23.8468 27.4904 25.4365 25.8406 20.4783 25.934C12.7967 25.4855 27.2558 27.4234 19.4939 26.8685C18.4521 27.2586 20.9646 27.7071 21.0267 27.5987ZM23.5093 28.3101C23.214 27.2868 22.6351 28.8537 23.5093 28.3101ZM26.4554 23.8663C27.6777 23.0077 24.7621 23.6365 26.4554 23.8663ZM17.0758 14.9991C22.1107 14.0325 28.992 12.9442 31.3679 15.4764C28.9498 13.8313 30.3912 12.2097 32.6746 14.6179C35.9043 17.0523 37.5203 13.5104 35.4209 12.693C37.8162 14.3749 40.5361 15.1708 37.0222 12.7997C40.8425 10.2005 29.3787 13.1398 26.7736 13.1093C25.5209 13.4275 13.8303 14.7956 17.0758 14.9991ZM20.026 11.8046C22.8965 10.5801 29.9535 12.5348 25.4248 10.5861C24.9806 10.3653 15.5096 12.0645 20.026 11.8046ZM30.4902 12.0492C33.8464 12.097 29.0423 9.49581 33.042 10.6749C32.3869 9.46134 28.3832 9.23361 26.4256 8.74832C25.3181 9.85812 28.6773 12.0645 30.4902 12.0492ZM21.8611 6.67556C23.0224 5.78486 19.8232 7.1287 21.8611 6.67556ZM26.1384 7.254C31.5513 6.84892 24.758 5.93635 25.0451 7.22184L26.1384 7.254ZM18.1521 3.72105C14.3394 0.905438 25.3211 4.19375 21.4468 1.24554C18.1867 -0.221604 15.0566 2.89964 18.1521 3.72105ZM67.0603 18.6235C68.8087 16.8716 59.8462 16.2607 65.8843 18.003C66.4398 18.1074 66.3144 18.7445 67.0603 18.6235ZM31.5724 83.8663C31.1857 84.7301 30.9461 86.1797 30.8564 88.2143C30.8564 88.6141 30.5382 88.8143 29.9002 88.8143C29.2621 88.8143 28.8179 88.6396 28.5666 88.2919C27.8834 87.3512 27.2365 86.6952 26.6189 86.3206C25.8912 85.883 24.9232 85.6185 23.7156 85.5283C22.4177 85.4123 19.1846 85.3543 14.0154 85.3543C12.8318 85.3543 12.0566 85.4256 11.6934 85.5678C11.4654 85.6573 11.3517 85.8509 11.3517 86.1476V94.9017C11.3517 95.198 11.6816 95.3392 12.3408 95.327C14.3687 95.3137 17.306 95.2355 21.1533 95.0949C21.9056 95.0426 22.4131 94.9043 22.6744 94.6786C22.9381 94.4532 23.1941 93.8711 23.4431 92.93C23.6013 92.4146 24.1381 92.2147 25.0486 92.3314C25.822 92.4215 26.1549 92.6214 26.0406 92.93C25.4019 94.6829 25.1957 96.9632 25.4236 99.7718C25.4476 100.106 25.072 100.287 24.2968 100.313C23.6582 100.352 23.2597 100.158 23.1015 99.7327C22.5109 98.1227 21.4099 97.2622 19.8062 97.1521C18.2008 97.0434 15.5857 96.9884 11.9664 96.9884C11.5562 96.9884 11.3517 97.0716 11.3517 97.2393V105.936C11.3517 106.58 11.7719 107.019 12.6139 107.25C13.276 107.443 14.6986 107.617 16.8836 107.772C18.001 107.836 18.489 108.114 18.3543 108.603C18.2166 109.028 17.2158 109.196 15.3467 109.105C9.95019 108.86 5.49707 108.873 1.99141 109.145C1.01114 109.221 0.523055 108.996 0.523055 108.468C0.523055 108.132 1.01114 107.94 1.99141 107.888C4.22324 107.746 5.33828 106.638 5.33828 104.564V88.0208C5.33828 87.1715 5.06992 86.5178 4.53613 86.06C4 85.6026 3.00332 85.1866 1.54786 84.8133C0.636141 84.5813 0.295126 84.2661 0.522469 83.8663C0.636141 83.622 0.818953 83.4861 1.06798 83.4609C1.29591 83.4218 1.90059 83.4476 2.87793 83.5385C4.31348 83.6671 7.69609 83.7317 13.024 83.7317C19.3105 83.7317 24.7404 83.6538 29.3189 83.4997C30.8441 83.4473 31.6082 83.5186 31.6082 83.7118C31.6082 83.7642 31.5964 83.8149 31.5724 83.8663ZM53.7249 108.398C53.7249 108.914 53.2122 109.139 52.188 109.075C49.0474 108.907 45.1521 108.932 40.5068 109.151C39.5722 109.204 38.9986 109.19 38.7806 109.114C38.5638 109.036 38.4572 108.824 38.4572 108.475C38.4572 108.166 39.0765 107.906 40.3175 107.692C41.5603 107.48 42.179 106.846 42.179 105.79V88.2999C42.179 87.2557 41.9113 86.4893 41.3775 85.9994C40.8414 85.5098 39.9021 85.1299 38.5591 84.8601C37.8525 84.7175 37.4986 84.518 37.4986 84.2601C37.4986 83.8736 38.0113 83.5839 39.0361 83.3906C40.5853 83.1072 42.1914 82.67 43.8542 82.0766C45.2206 81.6125 46.0867 81.3815 46.4494 81.3815C47.2913 81.3815 47.7144 81.709 47.7144 82.3663C47.7144 82.3156 47.6687 82.9597 47.5761 84.2989C47.5099 85.5741 47.4865 86.8301 47.5099 88.0678L47.6447 105.325C47.6447 106.111 47.9868 106.682 48.6701 107.036C49.3533 107.39 50.5275 107.625 52.188 107.741C53.2122 107.805 53.7249 108.024 53.7249 108.398V108.398ZM84.6208 107.259C84.6208 107.53 83.7501 107.938 82.0087 108.485C80.2655 109.033 78.8704 109.307 77.8239 109.307C76.9345 109.307 76.1499 109.063 75.4667 108.573C74.7835 108.083 74.3036 107.839 74.0311 107.839C73.8267 107.839 72.745 108.103 70.7851 108.63C68.8286 109.159 66.8575 109.424 64.8765 109.424C63.0097 109.424 61.4487 109.114 60.1966 108.496C58.8302 107.813 58.147 106.885 58.147 105.713C58.147 103.484 62.6564 101.887 71.6751 100.92C73.222 100.753 74.0095 100.398 74.0306 99.8573L74.1003 98.6203C74.2374 96.5077 72.5862 95.4516 69.1468 95.4516C68.1671 95.4516 67.2396 95.9468 66.3612 96.9386C65.4864 97.9318 64.2267 98.4658 62.5872 98.5437C60.7204 98.6458 59.7859 98.2016 59.7859 97.2098C59.7859 96.5909 61.1757 95.8706 63.9536 95.0452C66.8692 94.1824 69.6712 93.7501 72.3583 93.7501C76.9802 93.7501 79.2688 94.9942 79.2237 97.4806L79.086 105.442C79.0649 106.279 79.6913 106.698 80.9651 106.698C81.2165 106.698 81.6952 106.666 82.4001 106.601C83.1073 106.537 83.5175 106.505 83.6317 106.505C84.2909 106.505 84.6208 106.757 84.6208 107.259ZM74.1003 102.853C74.1237 102.531 73.9907 102.317 73.706 102.216C73.4212 102.112 72.9735 102.092 72.3583 102.157C66.8692 102.711 64.1247 103.722 64.1247 105.191C64.1247 106.673 65.548 107.413 68.3944 107.413C69.5335 107.413 70.7077 107.291 71.9124 107.047C73.3263 106.762 74.0311 106.422 74.0311 106.022L74.1003 102.853ZM110.018 105.035C110.018 106.401 109.087 107.487 107.233 108.292C105.377 109.098 102.844 109.5 99.6319 109.5C97.492 109.5 95.3499 109.372 93.21 109.114C91.3643 108.882 90.2944 108.669 89.9985 108.476C89.8157 108.295 89.7255 107.413 89.7255 105.828C89.7255 105.145 89.9985 104.791 90.5458 104.766C91.0919 104.727 91.5594 104.895 91.9462 105.267C93.6536 106.956 96.4098 107.8 100.213 107.8C103.422 107.8 105.028 107.168 105.028 105.905C105.028 105.352 104.665 104.888 103.935 104.514C103.138 104.089 101.591 103.593 99.2903 103.026C95.9645 102.189 93.7438 101.455 92.6288 100.823C91.4212 100.153 90.8182 99.2514 90.8182 98.1171C90.8182 96.7252 91.7633 95.6439 93.6536 94.8708C95.4067 94.123 97.7528 93.7501 100.69 93.7501C102.535 93.7501 104.22 93.833 105.747 94.001C107.387 94.1688 108.24 94.3743 108.309 94.6196C108.489 95.3402 108.867 96.3844 109.436 97.7508C109.505 97.9172 109.184 98.0528 108.48 98.1558C107.728 98.246 107.227 98.1747 106.976 97.9437C105.178 96.281 102.901 95.4503 100.144 95.4503C97.0245 95.4503 95.4641 96.0171 95.4641 97.1508C95.4641 97.7826 95.886 98.2845 96.728 98.6577C97.4803 98.9799 99.2446 99.4831 102.023 100.166C104.938 100.875 106.919 101.512 107.968 102.079C109.334 102.813 110.018 103.799 110.018 105.035ZM150.205 108.418C150.205 108.868 149.669 109.107 148.599 109.133C147.005 109.146 144.92 109.21 142.348 109.326C141.072 109.468 140.161 109.378 139.616 109.056C136.017 106.866 132.964 104.572 130.459 102.175C130.255 101.97 129.993 101.867 129.673 101.867C129.287 101.867 128.616 102.06 127.66 102.447C126.587 102.781 126.054 103.258 126.054 103.876C126.054 104.314 126.075 104.945 126.122 105.771C126.168 106.595 126.53 107.135 127.214 107.393C127.692 107.575 128.799 107.715 130.527 107.819C131.598 107.896 132.134 108.122 132.134 108.495C132.134 108.792 132.048 108.976 131.877 109.045C131.707 109.116 131.256 109.133 130.527 109.094C128.25 108.978 124.402 109.043 118.982 109.287C117.616 109.351 116.875 109.255 116.762 108.997C116.717 108.907 116.693 108.778 116.693 108.61C116.693 108.212 117.388 107.908 118.779 107.704C120.031 107.522 120.656 106.691 120.656 105.21V88.3191C120.656 87.263 120.475 86.5288 120.109 86.1167C119.608 85.588 118.559 85.1756 116.966 84.8793C116.216 84.7384 115.839 84.5385 115.839 84.2806C115.839 83.9061 116.375 83.6164 117.444 83.4112C119.166 83.0854 120.807 82.6372 122.329 82.0773C123.582 81.6142 124.357 81.3818 124.651 81.3818C125.587 81.3818 126.054 81.716 126.054 82.3872C126.054 82.2961 126.042 82.9348 126.018 84.2999C125.993 85.5626 125.982 86.8253 125.985 88.0881L126.054 100.185C126.054 100.521 126.212 100.687 126.53 100.687C126.872 100.687 127.396 100.521 128.103 100.185C129.993 99.3475 132.316 98.2526 135.071 96.8999C135.618 96.578 135.891 96.3201 135.891 96.1268C135.891 95.7794 134.969 95.5335 133.125 95.3929C132.328 95.3402 131.951 95.0896 131.996 94.6385C132.065 94.1877 132.464 93.9944 133.191 94.0587C134.833 94.188 137.224 94.2589 140.365 94.2722C142.552 94.2841 144.727 94.2911 146.891 94.2911C147.595 94.3044 147.949 94.542 147.949 95.0064C147.949 95.444 147.392 95.6827 146.277 95.7218C144.521 95.7592 142.87 95.9846 141.324 96.398C139.16 96.9509 136.847 97.9238 134.387 99.3157C134.207 99.3933 134.114 99.4897 134.114 99.6054C134.114 99.7854 134.501 100.218 135.277 100.901C138.123 103.349 140.811 105.197 143.337 106.447C144.955 107.233 146.469 107.625 147.88 107.625C148.929 107.625 149.578 107.667 149.827 107.751C150.079 107.835 150.205 108.058 150.205 108.418Z" fill="black"/>
</g>
<defs>
<clipPath id="clip0_14_2">
<rect width="150" height="109" fill="white" transform="translate(0.454529 0.5)"/>
</clipPath>
</defs>
</svg>
